<?xml version="1.0"?>
<svg xmlns="http://www.w3.org/2000/svg" xmlns:xlink="http://www.w3.org/1999/xlink" xmlns:svgjs="http://svgjs.com/svgjs" version="1.1" width="512" height="512" x="0" y="0" viewBox="0 0 480 480" style="enable-background:new 0 0 512 512" xml:space="preserve"><g>
<g xmlns="http://www.w3.org/2000/svg">
	<g>
		<path d="M240,280c-30.88,0-56,25.12-56,56s25.12,56,56,56s56-25.12,56-56S270.88,280,240,280z M240,376c-22.056,0-40-17.944-40-40    c0-22.056,17.944-40,40-40c22.056,0,40,17.944,40,40C280,358.056,262.056,376,240,376z" fill="#000000" data-original="#000000" style=""/>
	</g>
</g>
<g xmlns="http://www.w3.org/2000/svg">
	<g>
		<path d="M360,152c-30.88,0-56,25.12-56,56s25.12,56,56,56s56-25.12,56-56S390.88,152,360,152z M360,248c-22.056,0-40-17.944-40-40    c0-22.056,17.944-40,40-40c22.056,0,40,17.944,40,40C400,230.056,382.056,248,360,248z" fill="#000000" data-original="#000000" style=""/>
	</g>
</g>
<g xmlns="http://www.w3.org/2000/svg">
	<g>
		<path d="M424,368c-30.632,0-55.568,24.728-55.96,55.264l-256.072-22.592c0-0.224,0.032-0.448,0.032-0.672    c0-17.888-8.464-33.8-21.56-44.064l42.424-98.984C140.912,261.432,150.16,264,160,264c30.88,0,56-25.12,56-56    c0-7.824-1.624-15.264-4.528-22.032l129.512-86.336C350.576,107.352,362.752,112,376,112c30.88,0,56-25.12,56-56S406.88,0,376,0    c-28.152,0-51.456,20.904-55.36,48H111.36C107.456,20.904,84.152,0,56,0C25.12,0,0,25.12,0,56s25.12,56,56,56    c28.152,0,51.456-20.904,55.36-48h209.28c1.256,8.728,4.488,16.816,9.296,23.76l-126.824,84.552    C192.832,159.912,177.328,152,160,152c-30.88,0-56,25.12-56,56c0,15.096,6.032,28.792,15.776,38.872L76.464,347.928    C70.12,345.424,63.232,344,56,344c-30.88,0-56,25.12-56,56s25.12,56,56,56c25.128,0,46.44-16.64,53.512-39.48l260.728,23.008    C376.984,462.864,398.512,480,424,480c30.88,0,56-25.12,56-56S454.88,368,424,368z M376,16c22.056,0,40,17.944,40,40    c0,22.056-17.944,40-40,40c-22.056,0-40-17.944-40-40C336,33.944,353.944,16,376,16z M56,96c-22.056,0-40-17.944-40-40    c0-22.056,17.944-40,40-40c22.056,0,40,17.944,40,40C96,78.056,78.056,96,56,96z M160,168c22.056,0,40,17.944,40,40    c0,22.056-17.944,40-40,40c-22.056,0-40-17.944-40-40C120,185.944,137.944,168,160,168z M56,440c-22.056,0-40-17.944-40-40    c0-22.056,17.944-40,40-40c22.056,0,40,17.944,40,40C96,422.056,78.056,440,56,440z M424,464c-22.056,0-40-17.944-40-40    c0-22.056,17.944-40,40-40c22.056,0,40,17.944,40,40C464,446.056,446.056,464,424,464z" fill="#000000" data-original="#000000" style=""/>
	</g>
</g>
<g xmlns="http://www.w3.org/2000/svg">
	<g>
		<rect x="40" y="160" width="16" height="16" fill="#000000" data-original="#000000" style=""/>
	</g>
</g>
<g xmlns="http://www.w3.org/2000/svg">
	<g>
		<rect x="40" y="192" width="16" height="16" fill="#000000" data-original="#000000" style=""/>
	</g>
</g>
<g xmlns="http://www.w3.org/2000/svg">
	<g>
		<rect x="40" y="224" width="16" height="16" fill="#000000" data-original="#000000" style=""/>
	</g>
</g>
<g xmlns="http://www.w3.org/2000/svg">
	<g>
		<rect x="336" y="296" width="16" height="16" fill="#000000" data-original="#000000" style=""/>
	</g>
</g>
<g xmlns="http://www.w3.org/2000/svg">
	<g>
		<rect x="336" y="328" width="16" height="16" fill="#000000" data-original="#000000" style=""/>
	</g>
</g>
<g xmlns="http://www.w3.org/2000/svg">
	<g>
		<rect x="336" y="360" width="16" height="16" fill="#000000" data-original="#000000" style=""/>
	</g>
</g>
<g xmlns="http://www.w3.org/2000/svg">
</g>
<g xmlns="http://www.w3.org/2000/svg">
</g>
<g xmlns="http://www.w3.org/2000/svg">
</g>
<g xmlns="http://www.w3.org/2000/svg">
</g>
<g xmlns="http://www.w3.org/2000/svg">
</g>
<g xmlns="http://www.w3.org/2000/svg">
</g>
<g xmlns="http://www.w3.org/2000/svg">
</g>
<g xmlns="http://www.w3.org/2000/svg">
</g>
<g xmlns="http://www.w3.org/2000/svg">
</g>
<g xmlns="http://www.w3.org/2000/svg">
</g>
<g xmlns="http://www.w3.org/2000/svg">
</g>
<g xmlns="http://www.w3.org/2000/svg">
</g>
<g xmlns="http://www.w3.org/2000/svg">
</g>
<g xmlns="http://www.w3.org/2000/svg">
</g>
<g xmlns="http://www.w3.org/2000/svg">
</g>
</g></svg>
